<mxfile host="app.diagrams.net" modified="2024-05-01T15:26:01.092Z" agent="Mozilla/5.0 (Windows NT 10.0; Win64; x64) AppleWebKit/537.36 (KHTML, like Gecko) Chrome/124.0.0.0 Safari/537.36" etag="HTYtIWA9Pv3oL2ze_3Cs" version="24.3.1" type="github">
  <diagram id="R2lEEEUBdFMjLlhIrx00" name="Page-1">
    <mxGraphModel dx="458" dy="1519" grid="1" gridSize="10" guides="1" tooltips="1" connect="1" arrows="1" fold="1" page="1" pageScale="1" pageWidth="850" pageHeight="1100" math="0" shadow="0" extFonts="Permanent Marker^https://fonts.googleapis.com/css?family=Permanent+Marker">
      <root>
        <mxCell id="0" />
        <mxCell id="1" parent="0" />
        <mxCell id="_lsgw0ZP35dRzqOXwZen-2" value="" style="edgeStyle=entityRelationEdgeStyle;endArrow=ERzeroToMany;startArrow=ERone;endFill=1;startFill=0;entryX=1.001;entryY=0.072;entryDx=0;entryDy=0;entryPerimeter=0;" edge="1" parent="1" target="_lsgw0ZP35dRzqOXwZen-4">
          <mxGeometry width="100" height="100" relative="1" as="geometry">
            <mxPoint x="740" y="-530" as="sourcePoint" />
            <mxPoint x="800" y="-600" as="targetPoint" />
          </mxGeometry>
        </mxCell>
        <mxCell id="_lsgw0ZP35dRzqOXwZen-1" value="" style="edgeStyle=entityRelationEdgeStyle;endArrow=ERzeroToMany;startArrow=ERone;endFill=1;startFill=0;" edge="1" parent="1">
          <mxGeometry width="100" height="100" relative="1" as="geometry">
            <mxPoint x="220" y="-610" as="sourcePoint" />
            <mxPoint x="130" y="-475" as="targetPoint" />
          </mxGeometry>
        </mxCell>
        <mxCell id="_lsgw0ZP35dRzqOXwZen-3" value="Registration" style="shape=table;startSize=30;container=1;collapsible=1;childLayout=tableLayout;fixedRows=1;rowLines=0;fontStyle=1;align=center;resizeLast=1;" vertex="1" parent="1">
          <mxGeometry x="400" y="-720" width="250" height="130" as="geometry" />
        </mxCell>
        <mxCell id="_lsgw0ZP35dRzqOXwZen-4" value="" style="shape=partialRectangle;collapsible=0;dropTarget=0;pointerEvents=0;fillColor=none;points=[[0,0.5],[1,0.5]];portConstraint=eastwest;top=0;left=0;right=0;bottom=1;" vertex="1" parent="_lsgw0ZP35dRzqOXwZen-3">
          <mxGeometry y="30" width="250" height="30" as="geometry" />
        </mxCell>
        <mxCell id="_lsgw0ZP35dRzqOXwZen-5" value="PK" style="shape=partialRectangle;overflow=hidden;connectable=0;fillColor=none;top=0;left=0;bottom=0;right=0;fontStyle=1;" vertex="1" parent="_lsgw0ZP35dRzqOXwZen-4">
          <mxGeometry width="30" height="30" as="geometry">
            <mxRectangle width="30" height="30" as="alternateBounds" />
          </mxGeometry>
        </mxCell>
        <mxCell id="_lsgw0ZP35dRzqOXwZen-6" value="order_id VARCHAR (255) NOT NULL&#xa;module_id VARCHAR (255) NOT NULL&#xa;" style="shape=partialRectangle;overflow=hidden;connectable=0;fillColor=none;top=0;left=0;bottom=0;right=0;align=left;spacingLeft=6;fontStyle=5;" vertex="1" parent="_lsgw0ZP35dRzqOXwZen-4">
          <mxGeometry x="30" width="220" height="30" as="geometry">
            <mxRectangle width="220" height="30" as="alternateBounds" />
          </mxGeometry>
        </mxCell>
        <mxCell id="_lsgw0ZP35dRzqOXwZen-7" value="" style="shape=partialRectangle;collapsible=0;dropTarget=0;pointerEvents=0;fillColor=none;points=[[0,0.5],[1,0.5]];portConstraint=eastwest;top=0;left=0;right=0;bottom=0;" vertex="1" parent="_lsgw0ZP35dRzqOXwZen-3">
          <mxGeometry y="60" width="250" height="30" as="geometry" />
        </mxCell>
        <mxCell id="_lsgw0ZP35dRzqOXwZen-8" value="FK1" style="shape=partialRectangle;overflow=hidden;connectable=0;fillColor=none;top=0;left=0;bottom=0;right=0;" vertex="1" parent="_lsgw0ZP35dRzqOXwZen-7">
          <mxGeometry width="30" height="30" as="geometry">
            <mxRectangle width="30" height="30" as="alternateBounds" />
          </mxGeometry>
        </mxCell>
        <mxCell id="_lsgw0ZP35dRzqOXwZen-9" value="year_of_enroll int NOT NULL" style="shape=partialRectangle;overflow=hidden;connectable=0;fillColor=none;top=0;left=0;bottom=0;right=0;align=left;spacingLeft=6;" vertex="1" parent="_lsgw0ZP35dRzqOXwZen-7">
          <mxGeometry x="30" width="220" height="30" as="geometry">
            <mxRectangle width="220" height="30" as="alternateBounds" />
          </mxGeometry>
        </mxCell>
        <mxCell id="_lsgw0ZP35dRzqOXwZen-10" value="" style="shape=partialRectangle;collapsible=0;dropTarget=0;pointerEvents=0;fillColor=none;points=[[0,0.5],[1,0.5]];portConstraint=eastwest;top=0;left=0;right=0;bottom=0;" vertex="1" parent="_lsgw0ZP35dRzqOXwZen-3">
          <mxGeometry y="90" width="250" height="30" as="geometry" />
        </mxCell>
        <mxCell id="_lsgw0ZP35dRzqOXwZen-11" value="" style="shape=partialRectangle;overflow=hidden;connectable=0;fillColor=none;top=0;left=0;bottom=0;right=0;" vertex="1" parent="_lsgw0ZP35dRzqOXwZen-10">
          <mxGeometry width="30" height="30" as="geometry">
            <mxRectangle width="30" height="30" as="alternateBounds" />
          </mxGeometry>
        </mxCell>
        <mxCell id="_lsgw0ZP35dRzqOXwZen-12" value="semester INT NOT NULL" style="shape=partialRectangle;overflow=hidden;connectable=0;fillColor=none;top=0;left=0;bottom=0;right=0;align=left;spacingLeft=6;" vertex="1" parent="_lsgw0ZP35dRzqOXwZen-10">
          <mxGeometry x="30" width="220" height="30" as="geometry">
            <mxRectangle width="220" height="30" as="alternateBounds" />
          </mxGeometry>
        </mxCell>
        <mxCell id="_lsgw0ZP35dRzqOXwZen-13" value="Module" style="shape=table;startSize=30;container=1;collapsible=1;childLayout=tableLayout;fixedRows=1;rowLines=0;fontStyle=1;align=center;resizeLast=1;" vertex="1" parent="1">
          <mxGeometry x="451" y="-560" width="289" height="170" as="geometry" />
        </mxCell>
        <mxCell id="_lsgw0ZP35dRzqOXwZen-14" value="" style="shape=partialRectangle;collapsible=0;dropTarget=0;pointerEvents=0;fillColor=none;points=[[0,0.5],[1,0.5]];portConstraint=eastwest;top=0;left=0;right=0;bottom=1;" vertex="1" parent="_lsgw0ZP35dRzqOXwZen-13">
          <mxGeometry y="30" width="289" height="30" as="geometry" />
        </mxCell>
        <mxCell id="_lsgw0ZP35dRzqOXwZen-15" value="PK" style="shape=partialRectangle;overflow=hidden;connectable=0;fillColor=none;top=0;left=0;bottom=0;right=0;fontStyle=1;" vertex="1" parent="_lsgw0ZP35dRzqOXwZen-14">
          <mxGeometry width="30" height="30" as="geometry">
            <mxRectangle width="30" height="30" as="alternateBounds" />
          </mxGeometry>
        </mxCell>
        <mxCell id="_lsgw0ZP35dRzqOXwZen-16" value="module_id VARCHAR(255) NOT NULL" style="shape=partialRectangle;overflow=hidden;connectable=0;fillColor=none;top=0;left=0;bottom=0;right=0;align=left;spacingLeft=6;fontStyle=5;" vertex="1" parent="_lsgw0ZP35dRzqOXwZen-14">
          <mxGeometry x="30" width="259" height="30" as="geometry">
            <mxRectangle width="259" height="30" as="alternateBounds" />
          </mxGeometry>
        </mxCell>
        <mxCell id="_lsgw0ZP35dRzqOXwZen-17" value="" style="shape=partialRectangle;collapsible=0;dropTarget=0;pointerEvents=0;fillColor=none;points=[[0,0.5],[1,0.5]];portConstraint=eastwest;top=0;left=0;right=0;bottom=0;" vertex="1" parent="_lsgw0ZP35dRzqOXwZen-13">
          <mxGeometry y="60" width="289" height="30" as="geometry" />
        </mxCell>
        <mxCell id="_lsgw0ZP35dRzqOXwZen-18" value="FK1" style="shape=partialRectangle;overflow=hidden;connectable=0;fillColor=none;top=0;left=0;bottom=0;right=0;" vertex="1" parent="_lsgw0ZP35dRzqOXwZen-17">
          <mxGeometry width="30" height="30" as="geometry">
            <mxRectangle width="30" height="30" as="alternateBounds" />
          </mxGeometry>
        </mxCell>
        <mxCell id="_lsgw0ZP35dRzqOXwZen-19" value="module_id  VARCHAR(50) NOT NULL" style="shape=partialRectangle;overflow=hidden;connectable=0;fillColor=none;top=0;left=0;bottom=0;right=0;align=left;spacingLeft=6;" vertex="1" parent="_lsgw0ZP35dRzqOXwZen-17">
          <mxGeometry x="30" width="259" height="30" as="geometry">
            <mxRectangle width="259" height="30" as="alternateBounds" />
          </mxGeometry>
        </mxCell>
        <mxCell id="_lsgw0ZP35dRzqOXwZen-20" value="" style="shape=partialRectangle;collapsible=0;dropTarget=0;pointerEvents=0;fillColor=none;points=[[0,0.5],[1,0.5]];portConstraint=eastwest;top=0;left=0;right=0;bottom=0;" vertex="1" parent="_lsgw0ZP35dRzqOXwZen-13">
          <mxGeometry y="90" width="289" height="80" as="geometry" />
        </mxCell>
        <mxCell id="_lsgw0ZP35dRzqOXwZen-21" value="" style="shape=partialRectangle;overflow=hidden;connectable=0;fillColor=none;top=0;left=0;bottom=0;right=0;" vertex="1" parent="_lsgw0ZP35dRzqOXwZen-20">
          <mxGeometry width="30" height="80" as="geometry">
            <mxRectangle width="30" height="80" as="alternateBounds" />
          </mxGeometry>
        </mxCell>
        <mxCell id="_lsgw0ZP35dRzqOXwZen-22" value="module_name VARCHAR(50) NOT NULL&#xa;credit INT default NOT NULL&#xa;module_start)time INT NOT NULL&#xa;module_end_time int NOT NULL " style="shape=partialRectangle;overflow=hidden;connectable=0;fillColor=none;top=0;left=0;bottom=0;right=0;align=left;spacingLeft=6;" vertex="1" parent="_lsgw0ZP35dRzqOXwZen-20">
          <mxGeometry x="30" width="259" height="80" as="geometry">
            <mxRectangle width="259" height="80" as="alternateBounds" />
          </mxGeometry>
        </mxCell>
        <mxCell id="_lsgw0ZP35dRzqOXwZen-23" value="Student" style="shape=table;startSize=30;container=1;collapsible=1;childLayout=tableLayout;fixedRows=1;rowLines=0;fontStyle=1;align=center;resizeLast=1;" vertex="1" parent="1">
          <mxGeometry x="10" y="-750" width="260" height="140" as="geometry" />
        </mxCell>
        <mxCell id="_lsgw0ZP35dRzqOXwZen-24" value="" style="shape=partialRectangle;collapsible=0;dropTarget=0;pointerEvents=0;fillColor=none;points=[[0,0.5],[1,0.5]];portConstraint=eastwest;top=0;left=0;right=0;bottom=1;" vertex="1" parent="_lsgw0ZP35dRzqOXwZen-23">
          <mxGeometry y="30" width="260" height="30" as="geometry" />
        </mxCell>
        <mxCell id="_lsgw0ZP35dRzqOXwZen-25" value="PK" style="shape=partialRectangle;overflow=hidden;connectable=0;fillColor=none;top=0;left=0;bottom=0;right=0;fontStyle=1;" vertex="1" parent="_lsgw0ZP35dRzqOXwZen-24">
          <mxGeometry width="30" height="30" as="geometry">
            <mxRectangle width="30" height="30" as="alternateBounds" />
          </mxGeometry>
        </mxCell>
        <mxCell id="_lsgw0ZP35dRzqOXwZen-26" value="student id short text (255) NOT NULL" style="shape=partialRectangle;overflow=hidden;connectable=0;fillColor=none;top=0;left=0;bottom=0;right=0;align=left;spacingLeft=6;fontStyle=5;" vertex="1" parent="_lsgw0ZP35dRzqOXwZen-24">
          <mxGeometry x="30" width="230" height="30" as="geometry">
            <mxRectangle width="230" height="30" as="alternateBounds" />
          </mxGeometry>
        </mxCell>
        <mxCell id="_lsgw0ZP35dRzqOXwZen-27" value="" style="shape=partialRectangle;collapsible=0;dropTarget=0;pointerEvents=0;fillColor=none;points=[[0,0.5],[1,0.5]];portConstraint=eastwest;top=0;left=0;right=0;bottom=0;" vertex="1" parent="_lsgw0ZP35dRzqOXwZen-23">
          <mxGeometry y="60" width="260" height="70" as="geometry" />
        </mxCell>
        <mxCell id="_lsgw0ZP35dRzqOXwZen-28" value="" style="shape=partialRectangle;overflow=hidden;connectable=0;fillColor=none;top=0;left=0;bottom=0;right=0;" vertex="1" parent="_lsgw0ZP35dRzqOXwZen-27">
          <mxGeometry width="30" height="70" as="geometry">
            <mxRectangle width="30" height="70" as="alternateBounds" />
          </mxGeometry>
        </mxCell>
        <mxCell id="_lsgw0ZP35dRzqOXwZen-29" value="student_firstname VARCHAR(255) NOT NULL&#xa;student_lastname VARCHAR(255) NOT NULL&#xa;student_email VARCHAR(255) NOT NULL&#xa;studentID VARCHAR(50) NOT NULL" style="shape=partialRectangle;overflow=hidden;connectable=0;fillColor=none;top=0;left=0;bottom=0;right=0;align=left;spacingLeft=6;" vertex="1" parent="_lsgw0ZP35dRzqOXwZen-27">
          <mxGeometry x="30" width="230" height="70" as="geometry">
            <mxRectangle width="230" height="70" as="alternateBounds" />
          </mxGeometry>
        </mxCell>
        <mxCell id="_lsgw0ZP35dRzqOXwZen-30" value="enrolment" style="shape=table;startSize=30;container=1;collapsible=1;childLayout=tableLayout;fixedRows=1;rowLines=0;fontStyle=1;align=center;resizeLast=1;" vertex="1" parent="1">
          <mxGeometry x="140" y="-520" width="260" height="160" as="geometry" />
        </mxCell>
        <mxCell id="_lsgw0ZP35dRzqOXwZen-31" value="" style="shape=partialRectangle;collapsible=0;dropTarget=0;pointerEvents=0;fillColor=none;points=[[0,0.5],[1,0.5]];portConstraint=eastwest;top=0;left=0;right=0;bottom=1;" vertex="1" parent="_lsgw0ZP35dRzqOXwZen-30">
          <mxGeometry y="30" width="260" height="30" as="geometry" />
        </mxCell>
        <mxCell id="_lsgw0ZP35dRzqOXwZen-32" value="PK" style="shape=partialRectangle;overflow=hidden;connectable=0;fillColor=none;top=0;left=0;bottom=0;right=0;fontStyle=1;" vertex="1" parent="_lsgw0ZP35dRzqOXwZen-31">
          <mxGeometry width="30" height="30" as="geometry">
            <mxRectangle width="30" height="30" as="alternateBounds" />
          </mxGeometry>
        </mxCell>
        <mxCell id="_lsgw0ZP35dRzqOXwZen-33" value="student id short text (255) NOT NULL" style="shape=partialRectangle;overflow=hidden;connectable=0;fillColor=none;top=0;left=0;bottom=0;right=0;align=left;spacingLeft=6;fontStyle=5;" vertex="1" parent="_lsgw0ZP35dRzqOXwZen-31">
          <mxGeometry x="30" width="230" height="30" as="geometry">
            <mxRectangle width="230" height="30" as="alternateBounds" />
          </mxGeometry>
        </mxCell>
        <mxCell id="_lsgw0ZP35dRzqOXwZen-34" value="" style="shape=partialRectangle;collapsible=0;dropTarget=0;pointerEvents=0;fillColor=none;points=[[0,0.5],[1,0.5]];portConstraint=eastwest;top=0;left=0;right=0;bottom=0;" vertex="1" parent="_lsgw0ZP35dRzqOXwZen-30">
          <mxGeometry y="60" width="260" height="70" as="geometry" />
        </mxCell>
        <mxCell id="_lsgw0ZP35dRzqOXwZen-35" value="" style="shape=partialRectangle;overflow=hidden;connectable=0;fillColor=none;top=0;left=0;bottom=0;right=0;" vertex="1" parent="_lsgw0ZP35dRzqOXwZen-34">
          <mxGeometry width="30" height="70" as="geometry">
            <mxRectangle width="30" height="70" as="alternateBounds" />
          </mxGeometry>
        </mxCell>
        <mxCell id="_lsgw0ZP35dRzqOXwZen-36" value="student_firstname VARCHAR(255) NOT NULL&#xa;student_lastname VARCHAR(255) NOT NULL&#xa;student_email VARCHAR(255) NOT NULL&#xa;studentID VARCHAR(50) NOT NULL" style="shape=partialRectangle;overflow=hidden;connectable=0;fillColor=none;top=0;left=0;bottom=0;right=0;align=left;spacingLeft=6;" vertex="1" parent="_lsgw0ZP35dRzqOXwZen-34">
          <mxGeometry x="30" width="230" height="70" as="geometry">
            <mxRectangle width="230" height="70" as="alternateBounds" />
          </mxGeometry>
        </mxCell>
        <mxCell id="_lsgw0ZP35dRzqOXwZen-37" value="Lecturer" style="shape=table;startSize=30;container=1;collapsible=1;childLayout=tableLayout;fixedRows=1;rowLines=0;fontStyle=1;align=center;resizeLast=1;" vertex="1" parent="1">
          <mxGeometry x="430" y="-130" width="280" height="130" as="geometry" />
        </mxCell>
        <mxCell id="_lsgw0ZP35dRzqOXwZen-38" value="" style="shape=partialRectangle;collapsible=0;dropTarget=0;pointerEvents=0;fillColor=none;points=[[0,0.5],[1,0.5]];portConstraint=eastwest;top=0;left=0;right=0;bottom=1;" vertex="1" parent="_lsgw0ZP35dRzqOXwZen-37">
          <mxGeometry y="30" width="280" height="30" as="geometry" />
        </mxCell>
        <mxCell id="_lsgw0ZP35dRzqOXwZen-39" value="PK" style="shape=partialRectangle;overflow=hidden;connectable=0;fillColor=none;top=0;left=0;bottom=0;right=0;fontStyle=1;" vertex="1" parent="_lsgw0ZP35dRzqOXwZen-38">
          <mxGeometry width="30" height="30" as="geometry">
            <mxRectangle width="30" height="30" as="alternateBounds" />
          </mxGeometry>
        </mxCell>
        <mxCell id="_lsgw0ZP35dRzqOXwZen-40" value="lecturer_ID VARCHAR(50)" style="shape=partialRectangle;overflow=hidden;connectable=0;fillColor=none;top=0;left=0;bottom=0;right=0;align=left;spacingLeft=6;fontStyle=5;" vertex="1" parent="_lsgw0ZP35dRzqOXwZen-38">
          <mxGeometry x="30" width="250" height="30" as="geometry">
            <mxRectangle width="250" height="30" as="alternateBounds" />
          </mxGeometry>
        </mxCell>
        <mxCell id="_lsgw0ZP35dRzqOXwZen-41" value="" style="shape=partialRectangle;collapsible=0;dropTarget=0;pointerEvents=0;fillColor=none;points=[[0,0.5],[1,0.5]];portConstraint=eastwest;top=0;left=0;right=0;bottom=0;" vertex="1" parent="_lsgw0ZP35dRzqOXwZen-37">
          <mxGeometry y="60" width="280" height="70" as="geometry" />
        </mxCell>
        <mxCell id="_lsgw0ZP35dRzqOXwZen-42" value="" style="shape=partialRectangle;overflow=hidden;connectable=0;fillColor=none;top=0;left=0;bottom=0;right=0;" vertex="1" parent="_lsgw0ZP35dRzqOXwZen-41">
          <mxGeometry width="30" height="70" as="geometry">
            <mxRectangle width="30" height="70" as="alternateBounds" />
          </mxGeometry>
        </mxCell>
        <mxCell id="_lsgw0ZP35dRzqOXwZen-43" value="student_firstname VARCHAR(255) NOT NULL&#xa;student_lastname VARCHAR(255) NOT NULL&#xa;student_email VARCHAR(255) NOT NULL&#xa;studentID VARCHAR(50) NOT NULL" style="shape=partialRectangle;overflow=hidden;connectable=0;fillColor=none;top=0;left=0;bottom=0;right=0;align=left;spacingLeft=6;" vertex="1" parent="_lsgw0ZP35dRzqOXwZen-41">
          <mxGeometry x="30" width="250" height="70" as="geometry">
            <mxRectangle width="250" height="70" as="alternateBounds" />
          </mxGeometry>
        </mxCell>
        <mxCell id="_lsgw0ZP35dRzqOXwZen-44" value="department" style="shape=table;startSize=30;container=1;collapsible=1;childLayout=tableLayout;fixedRows=1;rowLines=0;fontStyle=1;align=center;resizeLast=1;" vertex="1" parent="1">
          <mxGeometry x="950" y="-130" width="175" height="160" as="geometry" />
        </mxCell>
        <mxCell id="_lsgw0ZP35dRzqOXwZen-45" value="" style="shape=partialRectangle;collapsible=0;dropTarget=0;pointerEvents=0;fillColor=none;points=[[0,0.5],[1,0.5]];portConstraint=eastwest;top=0;left=0;right=0;bottom=1;" vertex="1" parent="_lsgw0ZP35dRzqOXwZen-44">
          <mxGeometry y="30" width="175" height="30" as="geometry" />
        </mxCell>
        <mxCell id="_lsgw0ZP35dRzqOXwZen-46" value="PK" style="shape=partialRectangle;overflow=hidden;connectable=0;fillColor=none;top=0;left=0;bottom=0;right=0;fontStyle=1;" vertex="1" parent="_lsgw0ZP35dRzqOXwZen-45">
          <mxGeometry width="30" height="30" as="geometry">
            <mxRectangle width="30" height="30" as="alternateBounds" />
          </mxGeometry>
        </mxCell>
        <mxCell id="_lsgw0ZP35dRzqOXwZen-47" value="department_ID VARCHAR(50)" style="shape=partialRectangle;overflow=hidden;connectable=0;fillColor=none;top=0;left=0;bottom=0;right=0;align=left;spacingLeft=6;fontStyle=5;" vertex="1" parent="_lsgw0ZP35dRzqOXwZen-45">
          <mxGeometry x="30" width="145" height="30" as="geometry">
            <mxRectangle width="145" height="30" as="alternateBounds" />
          </mxGeometry>
        </mxCell>
        <mxCell id="_lsgw0ZP35dRzqOXwZen-48" value="" style="shape=partialRectangle;collapsible=0;dropTarget=0;pointerEvents=0;fillColor=none;points=[[0,0.5],[1,0.5]];portConstraint=eastwest;top=0;left=0;right=0;bottom=0;" vertex="1" parent="_lsgw0ZP35dRzqOXwZen-44">
          <mxGeometry y="60" width="175" height="70" as="geometry" />
        </mxCell>
        <mxCell id="_lsgw0ZP35dRzqOXwZen-49" value="FK" style="shape=partialRectangle;overflow=hidden;connectable=0;fillColor=none;top=0;left=0;bottom=0;right=0;" vertex="1" parent="_lsgw0ZP35dRzqOXwZen-48">
          <mxGeometry width="30" height="70" as="geometry">
            <mxRectangle width="30" height="70" as="alternateBounds" />
          </mxGeometry>
        </mxCell>
        <mxCell id="_lsgw0ZP35dRzqOXwZen-50" value="department_name VARCHAR(50) &#xa;lecturer_ID VARCHAR(50)&#xa;" style="shape=partialRectangle;overflow=hidden;connectable=0;fillColor=none;top=0;left=0;bottom=0;right=0;align=left;spacingLeft=6;" vertex="1" parent="_lsgw0ZP35dRzqOXwZen-48">
          <mxGeometry x="30" width="145" height="70" as="geometry">
            <mxRectangle width="145" height="70" as="alternateBounds" />
          </mxGeometry>
        </mxCell>
        <mxCell id="_lsgw0ZP35dRzqOXwZen-51" value="lecturer_module" style="shape=table;startSize=30;container=1;collapsible=1;childLayout=tableLayout;fixedRows=1;rowLines=0;fontStyle=1;align=center;resizeLast=1;" vertex="1" parent="1">
          <mxGeometry x="230" y="-280" width="189" height="140" as="geometry" />
        </mxCell>
        <mxCell id="_lsgw0ZP35dRzqOXwZen-52" value="" style="shape=partialRectangle;collapsible=0;dropTarget=0;pointerEvents=0;fillColor=none;points=[[0,0.5],[1,0.5]];portConstraint=eastwest;top=0;left=0;right=0;bottom=1;" vertex="1" parent="_lsgw0ZP35dRzqOXwZen-51">
          <mxGeometry y="30" width="189" height="30" as="geometry" />
        </mxCell>
        <mxCell id="_lsgw0ZP35dRzqOXwZen-53" value="PK" style="shape=partialRectangle;overflow=hidden;connectable=0;fillColor=none;top=0;left=0;bottom=0;right=0;fontStyle=1;" vertex="1" parent="_lsgw0ZP35dRzqOXwZen-52">
          <mxGeometry width="30" height="30" as="geometry">
            <mxRectangle width="30" height="30" as="alternateBounds" />
          </mxGeometry>
        </mxCell>
        <mxCell id="_lsgw0ZP35dRzqOXwZen-54" value="id" style="shape=partialRectangle;overflow=hidden;connectable=0;fillColor=none;top=0;left=0;bottom=0;right=0;align=left;spacingLeft=6;fontStyle=5;" vertex="1" parent="_lsgw0ZP35dRzqOXwZen-52">
          <mxGeometry x="30" width="159" height="30" as="geometry">
            <mxRectangle width="159" height="30" as="alternateBounds" />
          </mxGeometry>
        </mxCell>
        <mxCell id="_lsgw0ZP35dRzqOXwZen-55" value="" style="shape=partialRectangle;collapsible=0;dropTarget=0;pointerEvents=0;fillColor=none;points=[[0,0.5],[1,0.5]];portConstraint=eastwest;top=0;left=0;right=0;bottom=0;" vertex="1" parent="_lsgw0ZP35dRzqOXwZen-51">
          <mxGeometry y="60" width="189" height="70" as="geometry" />
        </mxCell>
        <mxCell id="_lsgw0ZP35dRzqOXwZen-56" value="FK" style="shape=partialRectangle;overflow=hidden;connectable=0;fillColor=none;top=0;left=0;bottom=0;right=0;" vertex="1" parent="_lsgw0ZP35dRzqOXwZen-55">
          <mxGeometry width="30" height="70" as="geometry">
            <mxRectangle width="30" height="70" as="alternateBounds" />
          </mxGeometry>
        </mxCell>
        <mxCell id="_lsgw0ZP35dRzqOXwZen-57" value="module_ID&#xa;lecturer_ID VARCHAR(50)&#xa;department_name VARCHAR(50)&#xa;department_id VARCHAR (50)&#xa;&#xa;" style="shape=partialRectangle;overflow=hidden;connectable=0;fillColor=none;top=0;left=0;bottom=0;right=0;align=left;spacingLeft=6;" vertex="1" parent="_lsgw0ZP35dRzqOXwZen-55">
          <mxGeometry x="30" width="159" height="70" as="geometry">
            <mxRectangle width="159" height="70" as="alternateBounds" />
          </mxGeometry>
        </mxCell>
        <mxCell id="_lsgw0ZP35dRzqOXwZen-66" value="" style="edgeStyle=entityRelationEdgeStyle;endArrow=ERzeroToMany;startArrow=ERone;endFill=1;startFill=0;entryX=0.998;entryY=0.944;entryDx=0;entryDy=0;entryPerimeter=0;" edge="1" parent="1" target="_lsgw0ZP35dRzqOXwZen-31">
          <mxGeometry width="100" height="100" relative="1" as="geometry">
            <mxPoint x="450" y="-520" as="sourcePoint" />
            <mxPoint x="370" y="-570" as="targetPoint" />
          </mxGeometry>
        </mxCell>
        <mxCell id="_lsgw0ZP35dRzqOXwZen-68" value="" style="edgeStyle=entityRelationEdgeStyle;endArrow=ERzeroToMany;startArrow=ERone;endFill=1;startFill=0;exitX=0.595;exitY=0.978;exitDx=0;exitDy=0;exitPerimeter=0;" edge="1" parent="1">
          <mxGeometry width="100" height="100" relative="1" as="geometry">
            <mxPoint x="633" y="-382" as="sourcePoint" />
            <mxPoint x="230" y="-240" as="targetPoint" />
          </mxGeometry>
        </mxCell>
        <mxCell id="_lsgw0ZP35dRzqOXwZen-69" value="" style="edgeStyle=entityRelationEdgeStyle;endArrow=ERzeroToMany;startArrow=ERone;endFill=1;startFill=0;exitX=-0.017;exitY=0.527;exitDx=0;exitDy=0;exitPerimeter=0;entryX=1.013;entryY=0.398;entryDx=0;entryDy=0;entryPerimeter=0;" edge="1" parent="1" source="_lsgw0ZP35dRzqOXwZen-45" target="_lsgw0ZP35dRzqOXwZen-41">
          <mxGeometry width="100" height="100" relative="1" as="geometry">
            <mxPoint x="830.0049999999999" y="-170" as="sourcePoint" />
            <mxPoint x="912.7699999999999" y="-60.61999999999989" as="targetPoint" />
          </mxGeometry>
        </mxCell>
        <mxCell id="_lsgw0ZP35dRzqOXwZen-70" value="" style="edgeStyle=entityRelationEdgeStyle;endArrow=ERzeroToMany;startArrow=ERone;endFill=1;startFill=0;exitX=0.595;exitY=0.978;exitDx=0;exitDy=0;exitPerimeter=0;entryX=-0.001;entryY=0.646;entryDx=0;entryDy=0;entryPerimeter=0;" edge="1" parent="1">
          <mxGeometry width="100" height="100" relative="1" as="geometry">
            <mxPoint x="356.9549999999999" y="-180" as="sourcePoint" />
            <mxPoint x="440" y="-71" as="targetPoint" />
          </mxGeometry>
        </mxCell>
      </root>
    </mxGraphModel>
  </diagram>
</mxfile>
